HIERARCHY
ROOT Hips
{
 OFFSET 0.000000 0.000000 0.000000
 CHANNELS 6 Xposition Yposition Zposition Yrotation Xrotation Zrotation
 JOINT Chest
 {
  OFFSET 0.000000 9.585900 0.002600
  CHANNELS 3 Yrotation Xrotation Zrotation
  JOINT Chest2
  {
   OFFSET 0.000000 9.601200 -0.005300
   CHANNELS 3 Yrotation Xrotation Zrotation
   JOINT Chest3
   {
    OFFSET 0.000000 9.561800 0.000000
    CHANNELS 3 Yrotation Xrotation Zrotation
    JOINT Chest4
    {
     OFFSET 0.000000 9.552100 0.000000
     CHANNELS 3 Yrotation Xrotation Zrotation
     JOINT Neck
     {
      OFFSET 0.000000 14.453000 0.000000
      CHANNELS 3 Yrotation Xrotation Zrotation
      JOINT Head
      {
       OFFSET 0.000000 8.936500 -0.011300
       CHANNELS 3 Yrotation Xrotation Zrotation
       End Site
       {
        OFFSET 0.000000 17.073600 -0.006000
       }
      }
     }
     JOINT RightCollar
     {
      OFFSET -2.921100 9.558500 0.000000
      CHANNELS 3 Yrotation Xrotation Zrotation
      JOINT RightShoulder
      {
       OFFSET -13.519700 0.000000 0.000000
       CHANNELS 3 Yrotation Xrotation Zrotation
       JOINT RightElbow
       {
        OFFSET 0.000000 -29.696600 0.000000
        CHANNELS 3 Yrotation Xrotation Zrotation
        JOINT RightWrist
        {
         OFFSET 0.000000 -24.004700 0.000000
         CHANNELS 3 Yrotation Xrotation Zrotation
         End Site
         {
          OFFSET 0.000000 -17.728500 0.000000
         }
        }
       }
      }
     }
     JOINT LeftCollar
     {
      OFFSET 2.921100 9.558500 0.000000
      CHANNELS 3 Yrotation Xrotation Zrotation
      JOINT LeftShoulder
      {
       OFFSET 13.519700 0.000000 0.000000
       CHANNELS 3 Yrotation Xrotation Zrotation
       JOINT LeftElbow
       {
        OFFSET 0.000000 -29.696600 0.000000
        CHANNELS 3 Yrotation Xrotation Zrotation
        JOINT LeftWrist
        {
         OFFSET 0.000000 -24.004700 0.000000
         CHANNELS 3 Yrotation Xrotation Zrotation
         End Site
         {
          OFFSET 0.000000 -17.728500 0.000000
         }
        }
       }
      }
     }
    }
   }
  }
 }
 JOINT RightHip
 {
  OFFSET -7.771700 -0.012900 -0.001300
  CHANNELS 3 Yrotation Xrotation Zrotation
  JOINT RightKnee
  {
   OFFSET 0.000000 -40.869800 0.001200
   CHANNELS 3 Yrotation Xrotation Zrotation
   JOINT RightAnkle
   {
    OFFSET 0.000000 -39.717900 0.002100
    CHANNELS 3 Yrotation Xrotation Zrotation
    JOINT RightToe
    {
     OFFSET 0.000000 -4.965400 11.033500
     CHANNELS 3 Yrotation Xrotation Zrotation
     End Site
     {
      OFFSET 0.000000 -1.423100 5.872300
     }
    }
   }
  }
 }
 JOINT LeftHip
 {
  OFFSET 7.771700 -0.012900 -0.001300
  CHANNELS 3 Yrotation Xrotation Zrotation
  JOINT LeftKnee
  {
   OFFSET 0.000000 -40.869800 0.001200
   CHANNELS 3 Yrotation Xrotation Zrotation
   JOINT LeftAnkle
   {
    OFFSET 0.000000 -39.717900 0.002100
    CHANNELS 3 Yrotation Xrotation Zrotation
    JOINT LeftToe
    {
     OFFSET 0.000000 -4.965400 11.033500
     CHANNELS 3 Yrotation Xrotation Zrotation
     End Site
     {
      OFFSET 0.000000 -1.423100 5.872300
     }
    }
   }
  }
 }
}
MOTION
Frames: 15
Frame Time: 0.008333
0.000000 85.388000 0.000000 0.000000 -5.767877 0.000000 0.000000 11.653817 0.000000 0.000000 -5.885947 0.000000 0.000000 -0.000000 0.000000 0.000000 -0.000000 0.000000 0.000000 12.528835 0.000000 0.000000 0.711642 0.000000 0.000000 -0.000000 0.000000 0.000000 0.000000 -90.000000 0.000000 -2.309062 0.000000 0.000000 2.309062 0.000000 0.000000 -0.000000 0.000000 0.000000 -0.000000 90.000000 0.000000 -2.309062 0.000000 0.000000 2.309062 0.000000 0.000000 8.520406 0.000000 0.000000 1.905762 0.000000 -0.000000 -4.658285 0.000000 0.000000 -0.000000 0.000000 0.000000 8.520406 0.000000 0.000000 1.905762 0.000000 -0.000000 -4.658285 0.000000 0.000000 -0.000000 0.000000
-8.984013 58.418569 36.951605 171.028020 -40.267772 -0.851259 0.767652 25.514570 2.242633 0.045169 4.135767 0.217027 0.087944 6.632108 0.335570 0.434456 21.137152 1.145400 1.446677 12.613763 -1.837903 3.501099 -12.310488 -4.082394 3.734528 -3.678936 -4.528073 44.112055 -42.374458 -22.485263 36.630851 -10.055381 -5.813665 8.014336 -9.420911 -49.863082 -5.336404 -8.803751 3.099163 -58.385895 -35.817107 11.519667 -26.652636 -4.669406 23.699591 -23.609883 -4.164765 37.504648 12.741232 -31.554590 0.468283 -2.752977 69.131242 3.082422 1.615933 2.767005 1.875813 -0.045824 0.047030 -0.028577 -7.343871 -33.338305 -2.252653 32.772245 69.086090 30.783319 -19.032892 0.743926 -2.639353 0.035173 -0.574052 0.030564
-8.988621 58.416811 36.961989 171.019399 -40.343656 -0.850624 0.742999 25.480936 2.275818 0.059060 4.202184 0.194378 0.075805 6.584435 0.364092 0.425668 21.134829 1.170600 1.443640 12.685531 -1.886597 3.519445 -12.183694 -4.145029 3.782437 -3.687801 -4.545329 44.088941 -42.337881 -22.491877 36.697244 -10.052813 -5.813084 8.014480 -9.453351 -49.782122 -5.306144 -8.773074 3.101795 -58.310894 -35.785712 11.374954 -26.667659 -4.767197 23.732970 -23.568491 -4.068352 37.409462 12.806272 -31.495819 0.454788 -2.814758 69.128259 3.071654 1.609392 2.820648 1.891617 -0.045047 0.026677 -0.032330 -7.399465 -33.265698 -2.210963 32.795137 69.078640 30.742119 -19.049989 0.763951 -2.640442 0.026558 -0.583570 0.029610
-8.995384 58.413596 36.975368 171.011163 -40.419576 -0.842966 0.735526 25.511494 2.285088 0.042395 4.132268 0.227275 0.075624 6.606133 0.362752 0.417918 21.131910 1.198279 1.432190 12.776357 -1.961486 3.539375 -12.093401 -4.188127 3.828053 -3.695841 -4.560402 44.059367 -42.293318 -22.499156 36.746401 -10.068673 -5.808324 8.018221 -9.476065 -49.683972 -5.276597 -8.738082 3.098494 -58.230911 -35.783025 11.235476 -26.650643 -4.898444 23.735306 -23.576637 -3.939525 37.311656 12.873070 -31.432070 0.429315 -2.847886 69.120594 3.087803 1.605056 2.854680 1.903764 -0.047035 0.027686 -0.031877 -7.432413 -33.192604 -2.192913 32.804113 69.061344 30.706865 -19.069306 0.785502 -2.646947 0.022078 -0.589172 0.028282
-9.002116 58.409784 36.990789 170.995384 -40.498888 -0.833450 0.712296 25.477381 2.314438 0.039731 4.131530 0.234423 0.077382 6.628833 0.361463 0.410763 21.130524 1.226646 1.432057 12.835331 -2.002310 3.545527 -12.011917 -4.247617 3.868342 -3.685216 -4.584996 44.019135 -42.253612 -22.502025 36.781509 -10.111906 -5.819187 8.030698 -9.493756 -49.567053 -5.247828 -8.705289 3.088078 -58.118832 -35.748391 11.082391 -26.659475 -5.057162 23.762506 -23.576403 -3.821028 37.206837 12.908626 -31.366923 0.435682 -2.893112 69.110353 3.050635 1.609729 2.889679 1.927432 -0.047110 0.030846 -0.031917 -7.428789 -33.114684 -2.194043 32.792577 69.041115 30.679395 -19.066467 0.807926 -2.652121 0.019018 -0.593108 0.025624
-9.007927 58.406228 37.007093 170.985365 -40.584881 -0.833009 0.689399 25.448496 2.350951 0.045541 4.178080 0.220706 0.071112 6.605842 0.380646 0.403226 21.130259 1.253939 1.450836 12.865097 -2.000072 3.559912 -11.836640 -4.374481 3.894213 -3.631131 -4.635442 43.980403 -42.270052 -22.512006 36.804497 -10.171256 -5.828730 8.051007 -9.514704 -49.438324 -5.217779 -8.674326 3.072326 -57.976117 -35.677681 10.913870 -26.701491 -5.250644 23.813969 -23.564963 -3.708493 37.094888 12.935169 -31.292821 0.444592 -2.921407 69.095325 3.039173 1.610872 2.921512 1.940409 -0.046833 0.038540 -0.029545 -7.472688 -33.033399 -2.168657 32.829713 69.020935 30.669909 -19.066562 0.832833 -2.662615 0.021364 -0.600245 0.025233
-9.015135 58.402540 37.024104 170.978396 -40.670747 -0.824250 0.666775 25.441569 2.369385 0.043225 4.177838 0.225895 0.067613 6.605440 0.388979 0.395205 21.128916 1.279789 1.444140 12.947241 -2.061618 3.582860 -11.713962 -4.445483 3.948437 -3.632920 -4.634843 43.896172 -42.209976 -22.504429 36.808725 -10.242712 -5.839571 8.072885 -9.544982 -49.298707 -5.188758 -8.641963 3.052319 -57.834244 -35.612176 10.753301 -26.751554 -5.451531 23.860387 -23.553123 -3.588920 36.972979 12.996528 -31.215805 0.421045 -2.960185 69.080634 3.047646 1.609757 2.946201 1.949172 -0.045828 0.051771 -0.026856 -7.537215 -32.951307 -2.147802 32.908125 68.985051 30.687008 -19.082480 0.857700 -2.682381 0.024786 -0.603465 0.026139
-9.020179 58.399755 37.041121 170.961256 -40.763331 -0.817415 0.670402 25.487379 2.386475 0.028767 4.107100 0.258149 0.067289 6.627949 0.386679 0.387990 21.126904 1.305124 1.434926 13.030464 -2.122274 3.598219 -11.610846 -4.507054 4.005178 -3.623436 -4.630639 43.794803 -42.157351 -22.496068 36.793914 -10.325629 -5.857200 8.095042 -9.581269 -49.140005 -5.164252 -8.607273 3.029045 -57.681825 -35.536737 10.597372 -26.811710 -5.677284 23.906742 -23.538185 -3.459556 36.838150 13.054603 -31.135842 0.420395 -3.023090 69.064590 3.019615 1.613301 2.981151 1.964164 -0.046271 0.056478 -0.024176 -7.546104 -32.855874 -2.142230 32.949709 68.947216 30.711625 -19.116522 0.867963 -2.704233 0.049330 -0.600308 0.024647
-9.030574 58.396161 37.058755 170.948053 -40.845925 -0.776733 0.634354 25.453627 2.380386 0.032075 4.130694 0.255292 0.064186 6.627720 0.394792 0.382585 21.173369 1.290848 1.440384 13.041654 -2.124970 3.600351 -11.527178 -4.561489 4.050029 -3.636355 -4.604951 43.676159 -42.142137 -22.481940 36.772009 -10.425559 -5.881117 8.116546 -9.621880 -48.963280 -5.147260 -8.613174 3.048403 -57.524508 -35.453489 10.448477 -26.872292 -5.934906 23.951966 -23.524077 -3.317209 36.694659 13.131322 -31.065194 0.382216 -3.084439 69.062519 2.975956 1.610950 3.011673 1.992910 -0.047915 0.073539 -0.022385 -7.519277 -32.775789 -2.187796 33.000945 68.904356 30.758789 -19.155097 0.848094 -2.738407 0.048237 -0.562761 0.038993
-9.034422 58.394045 37.076448 170.938485 -40.937327 -0.770935 0.613989 25.427196 2.413268 0.041701 4.202313 0.231090 0.054342 6.578554 0.423641 0.378960 21.224170 1.276531 1.457649 13.023657 -2.088631 3.596100 -11.412662 -4.650119 4.071934 -3.617256 -4.610276 43.544581 -42.180391 -22.448653 36.748365 -10.541487 -5.912069 8.140264 -9.677191 -48.776298 -5.136334 -8.594464 3.035728 -57.384448 -35.344284 10.349791 -26.934856 -6.233590 24.003801 -23.515469 -3.144905 36.534498 13.183460 -30.985436 0.379062 -3.135247 69.045729 2.958794 1.608921 3.051988 2.004545 -0.045919 0.069569 -0.019283 -7.513487 -32.681288 -2.196511 33.049049 68.856927 30.807492 -19.205028 0.864276 -2.764431 0.049945 -0.560077 0.040914
-9.037676 58.393018 37.093585 170.919579 -41.033891 -0.755324 0.601270 25.426352 2.434501 0.048445 4.252252 0.214506 0.044598 6.525655 0.453348 0.365880 21.147280 1.359363 1.440802 13.167175 -2.188692 3.603184 -11.218827 -4.748348 4.107832 -3.456631 -4.707258 43.386005 -42.222200 -22.396914 36.716365 -10.668259 -5.958919 8.169962 -9.757976 -48.577147 -5.089447 -8.474992 2.945263 -57.220398 -35.243942 10.204530 -27.010196 -6.575357 24.062872 -23.499538 -2.927833 36.343564 13.241513 -30.899327 0.375032 -3.187483 69.028991 2.937446 1.609349 3.090395 2.019717 -0.045750 0.059457 -0.018812 -7.525402 -32.575574 -2.198290 33.108049 68.802739 30.847576 -19.245957 0.868157 -2.797613 0.070627 -0.544408 0.047552
-9.037634 58.391501 37.112500 170.901185 -41.120246 -0.754287 0.590008 25.412119 2.469860 0.035420 4.176422 0.251283 0.047248 6.596475 0.427402 0.355982 21.116630 1.401628 1.428642 13.263097 -2.246730 3.600817 -11.066342 -4.822205 4.160526 -3.356191 -4.738026 43.192538 -42.230331 -22.337127 36.676710 -10.809439 -6.025954 8.193731 -9.865339 -48.363634 -5.045478 -8.382253 2.889805 -57.044091 -35.132652 10.073869 -27.100616 -6.963528 24.126793 -23.464998 -2.665821 36.114253 13.312403 -30.830823 0.387609 -3.316335 69.010633 2.846695 1.616396 3.150057 2.044842 -0.042491 0.044069 -0.019178 -7.525860 -32.485093 -2.194478 33.156973 68.757459 30.898417 -19.261168 0.884969 -2.833319 0.067039 -0.540649 0.057589
-9.036056 58.390842 37.131321 170.882585 -41.208303 -0.755222 0.578511 25.397001 2.507697 0.025084 4.147367 0.265090 0.049268 6.618125 0.424644 0.345040 21.110047 1.423898 1.418709 13.333568 -2.284237 3.593091 -10.934105 -4.885443 4.245929 -3.255613 -4.706656 42.982919 -42.219657 -22.319362 36.630204 -10.969434 -6.113107 8.204310 -9.999728 -48.137499 -5.002288 -8.288061 2.833826 -56.850749 -35.004954 9.969508 -27.195645 -7.405459 24.199986 -23.416648 -2.365187 35.842943 13.345723 -30.752910 0.417812 -3.419470 68.985052 2.759021 1.629687 3.188435 2.063641 -0.045700 0.050553 -0.019759 -7.517244 -32.394759 -2.191913 33.202094 68.716469 30.956264 -19.290607 0.903847 -2.868190 0.109323 -0.545070 0.062675
-9.034135 58.391484 37.149377 170.864450 -41.301707 -0.751052 0.566937 25.385945 2.540507 0.033064 4.198451 0.249481 0.037530 6.557549 0.452618 0.335260 21.101803 1.446111 1.404803 13.403920 -2.319797 3.586571 -10.819179 -4.940265 4.307734 -3.110344 -4.698468 42.770982 -42.257286 -22.292866 36.569220 -11.153399 -6.224546 8.202618 -10.165792 -47.894138 -4.971872 -8.177590 2.758551 -56.624832 -34.852322 9.880958 -27.273251 -7.907747 24.285375 -23.358943 -2.034634 35.536865 13.368445 -30.666379 0.445993 -3.481470 68.958738 2.706169 1.634121 3.224315 2.076149 -0.045941 0.058444 -0.019248 -7.523433 -32.297750 -2.188049 33.268181 68.671670 31.020388 -19.324371 0.919089 -2.902236 0.114271 -0.550819 0.062722
-9.034367 58.389763 37.170526 170.840963 -41.367266 -0.727170 0.553791 25.347258 2.555055 0.024547 4.167154 0.263361 0.040096 6.579332 0.449294 0.329019 21.093493 1.468040 1.386683 13.472242 -2.352593 3.590578 -10.741119 -4.983582 4.356575 -2.941033 -4.695736 42.538177 -42.317768 -22.256038 36.491863 -11.368038 -6.364340 8.174922 -10.366217 -47.620794 -4.924820 -8.058578 2.702578 -56.380535 -34.705438 9.777568 -27.299190 -8.477771 24.377314 -23.285742 -1.686426 35.205956 13.405814 -30.610606 0.448610 -3.542739 68.938734 2.649941 1.636780 3.267031 2.091260 -0.043810 0.060941 -0.018749 -7.542042 -32.225882 -2.196485 33.361064 68.611545 31.094932 -19.344013 0.921231 -2.931161 0.102802 -0.532519 0.058349
